{"accessors":[{"bufferView":0,"componentType":5126,"count":1,"max":[1.0,0.0,0.0,0.0,0.0,0.0,-1.0,0.0,0.0,1.0,0.0,0.0,0.0,0.25,0.0,1.0],"min":[1.0,0.0,0.0,0.0,0.0,0.0,-1.0,0.0,0.0,1.0,0.0,0.0,0.0,0.25,0.0,1.0],"normalized":false,"type":"MAT4"},{"bufferView":1,"componentType":5126,"count":30,"max":[10.0,0.0,14.0],"min":[6.0,-0.10000000149011612,10.0],"normalized":false,"type":"VEC3"},{"bufferView":2,"componentType":5126,"count":30,"max":[0.0,0.0,-4.5778462663292885e-05,-1.0],"min":[-1.0,0.0,-1.0,-1.0],"normalized":false,"type":"VEC4"},{"bufferView":3,"componentType":5126,"count":30,"max":[0.0,1.0,-1.5259021893143654e-05],"min":[0.0,-1.0,-1.0],"normalized":false,"type":"VEC3"},{"bufferView":4,"componentType":5126,"count":30,"max":[1.0,1.0],"min":[0.0,0.0],"normalized":false,"type":"VEC2"},{"bufferView":5,"componentType":5121,"count":30,"max":[29],"min":[0],"normalized":false,"type":"SCALAR"},{"bufferView":6,"componentType":5126,"count":24,"max":[6.0,0.0,18.0],"min":[2.0,-0.10000000149011612,14.0],"normalized":false,"type":"VEC3"},{"bufferView":7,"componentType":5126,"count":24,"max":[0.0,0.0,7.630093023180962e-05,-1.0],"min":[-1.0,-1.0,-1.0,-1.0],"normalized":false,"type":"VEC4"},{"bufferView":8,"componentType":5126,"count":24,"max":[0.0,1.0,1.0],"min":[-1.0,-1.0,-1.5259021893143654e-05],"normalized":false,"type":"VEC3"},{"bufferView":9,"componentType":5126,"count":24,"max":[1.0,1.0],"min":[0.0,0.0],"normalized":false,"type":"VEC2"},{"bufferView":10,"componentType":5121,"count":24,"max":[23],"min":[0],"normalized":false,"type":"SCALAR"},{"bufferView":11,"componentType":5126,"count":24,"max":[6.0,0.0,14.0],"min":[2.0,-0.10000000149011612,10.0],"normalized":false,"type":"VEC3"},{"bufferView":12,"componentType":5126,"count":24,"max":[0.0,0.0,7.630093023180962e-05,-1.0],"min":[-1.5260186046361923e-05,-1.0,-1.0,-1.0],"normalized":false,"type":"VEC4"},{"bufferView":13,"componentType":5126,"count":24,"max":[0.0,1.0,-1.5259021893143654e-05],"min":[-1.0,-1.0,-1.5259021893143654e-05],"normalized":false,"type":"VEC3"},{"bufferView":14,"componentType":5126,"count":24,"max":[1.0,1.0],"min":[0.0,0.0],"normalized":false,"type":"VEC2"},{"bufferView":15,"componentType":5126,"count":24,"max":[14.0,0.0,14.0],"min":[10.0,-0.10000000149011612,10.0],"normalized":false,"type":"VEC3"},{"bufferView":16,"componentType":5126,"count":24,"max":[0.0,0.0,7.630093023180962e-05,-1.0],"min":[-1.5260186046361923e-05,-1.0,-1.0,-1.0],"normalized":false,"type":"VEC4"},{"bufferView":17,"componentType":5126,"count":24,"max":[1.0,1.0,-1.5259021893143654e-05],"min":[0.0,-1.0,-1.5259021893143654e-05],"normalized":false,"type":"VEC3"},{"bufferView":18,"componentType":5126,"count":24,"max":[1.0,1.0],"min":[0.0,0.0],"normalized":false,"type":"VEC2"},{"bufferView":19,"componentType":5126,"count":24,"max":[14.0,0.0,18.0],"min":[10.0,-0.10000000149011612,14.0],"normalized":false,"type":"VEC3"},{"bufferView":20,"componentType":5126,"count":24,"max":[0.0,0.0,7.630093023180962e-05,-1.0],"min":[-1.0,-1.0,-1.0,-1.0],"normalized":false,"type":"VEC4"},{"bufferView":21,"componentType":5126,"count":24,"max":[1.0,1.0,1.0],"min":[-1.5259254723787308e-05,-1.0,-1.5259021893143654e-05],"normalized":false,"type":"VEC3"},{"bufferView":22,"componentType":5126,"count":24,"max":[1.0,1.0],"min":[0.0,0.0],"normalized":false,"type":"VEC2"},{"bufferView":23,"componentType":5126,"count":18,"max":[10.0,0.0,18.0],"min":[6.0,-0.10000000149011612,14.0],"normalized":false,"type":"VEC3"},{"bufferView":24,"componentType":5126,"count":18,"max":[0.0,0.0,-4.5778462663292885e-05,-1.0],"min":[-1.0,0.0,-1.0,-1.0],"normalized":false,"type":"VEC4"},{"bufferView":25,"componentType":5126,"count":18,"max":[0.0,1.0,1.0],"min":[-1.5259254723787308e-05,-1.0,-1.5259021893143654e-05],"normalized":false,"type":"VEC3"},{"bufferView":26,"componentType":5126,"count":18,"max":[1.0,1.0],"min":[0.0,0.0],"normalized":false,"type":"VEC2"},{"bufferView":27,"componentType":5121,"count":18,"max":[17],"min":[0],"normalized":false,"type":"SCALAR"},{"bufferView":28,"componentType":5126,"count":18,"max":[14.0,0.0,10.0],"min":[10.0,-0.10000000149011612,6.0],"normalized":false,"type":"VEC3"},{"bufferView":29,"componentType":5126,"count":18,"max":[0.0,0.0,7.630093023180962e-05,-1.0],"min":[-1.5260186046361923e-05,-1.0,-1.0,-1.0],"normalized":false,"type":"VEC4"},{"bufferView":30,"componentType":5126,"count":18,"max":[0.0,1.0,-1.5259021893143654e-05],"min":[-1.0,-1.0,-1.5259021893143654e-05],"normalized":false,"type":"VEC3"},{"bufferView":31,"componentType":5126,"count":18,"max":[1.0,1.0],"min":[0.0,0.0],"normalized":false,"type":"VEC2"},{"bufferView":32,"componentType":5126,"count":18,"max":[14.0,0.0,6.0],"min":[10.0,-0.10000000149011612,2.0],"normalized":false,"type":"VEC3"},{"bufferView":33,"componentType":5126,"count":18,"max":[0.0,0.0,7.630093023180962e-05,-1.0],"min":[-1.5260186046361923e-05,-1.0,-1.0,-1.0],"normalized":false,"type":"VEC4"},{"bufferView":34,"componentType":5126,"count":18,"max":[0.0,1.0,-1.5259021893143654e-05],"min":[-1.0,-1.0,-1.5259021893143654e-05],"normalized":false,"type":"VEC3"},{"bufferView":35,"componentType":5126,"count":18,"max":[1.0,1.0],"min":[0.0,0.0],"normalized":false,"type":"VEC2"},{"bufferView":36,"componentType":5126,"count":27,"max":[10.0,0.0,2.0],"min":[6.0,-0.10000000149011612,-2.0],"normalized":false,"type":"VEC3"},{"bufferView":37,"componentType":5126,"count":27,"max":[0.0,0.0,-4.5778462663292885e-05,-1.0],"min":[-1.0,0.0,-1.0,-1.0],"normalized":false,"type":"VEC4"},{"bufferView":38,"componentType":5126,"count":27,"max":[0.0,1.0,1.0],"min":[-1.5259254723787308e-05,-1.0,-1.0],"normalized":false,"type":"VEC3"},{"bufferView":39,"componentType":5126,"count":27,"max":[1.0,1.0],"min":[0.0,0.0],"normalized":false,"type":"VEC2"},{"bufferView":40,"componentType":5121,"count":27,"max":[26],"min":[0],"normalized":false,"type":"SCALAR"},{"bufferView":41,"componentType":5126,"count":30,"max":[6.0,0.0,2.0],"min":[2.0,-0.10000000149011612,-2.0],"normalized":false,"type":"VEC3"},{"bufferView":42,"componentType":5126,"count":30,"max":[0.0,0.0,7.630093023180962e-05,-1.0],"min":[-1.0,-1.0,-1.0,-1.0],"normalized":false,"type":"VEC4"},{"bufferView":43,"componentType":5126,"count":30,"max":[0.0,1.0,-1.5259021893143654e-05],"min":[-1.0,-1.0,-1.0],"normalized":false,"type":"VEC3"},{"bufferView":44,"componentType":5126,"count":30,"max":[1.0,1.0],"min":[0.0,0.0],"normalized":false,"type":"VEC2"},{"bufferView":45,"componentType":5126,"count":18,"max":[6.0,0.0,6.0],"min":[2.0,-0.10000000149011612,2.0],"normalized":false,"type":"VEC3"},{"bufferView":46,"componentType":5126,"count":18,"max":[0.0,0.0,7.630093023180962e-05,-1.0],"min":[-1.5260186046361923e-05,-1.0,-1.0,-1.0],"normalized":false,"type":"VEC4"},{"bufferView":47,"componentType":5126,"count":18,"max":[1.0,1.0,-1.5259021893143654e-05],"min":[0.0,-1.0,-1.5259021893143654e-05],"normalized":false,"type":"VEC3"},{"bufferView":48,"componentType":5126,"count":18,"max":[1.0,1.0],"min":[0.0,0.0],"normalized":false,"type":"VEC2"},{"bufferView":49,"componentType":5126,"count":18,"max":[6.0,0.0,10.0],"min":[2.0,-0.10000000149011612,6.0],"normalized":false,"type":"VEC3"},{"bufferView":50,"componentType":5126,"count":18,"max":[0.0,0.0,7.630093023180962e-05,-1.0],"min":[-1.5260186046361923e-05,-1.0,-1.0,-1.0],"normalized":false,"type":"VEC4"},{"bufferView":51,"componentType":5126,"count":18,"max":[1.0,1.0,-1.5259021893143654e-05],"min":[0.0,-1.0,-1.5259021893143654e-05],"normalized":false,"type":"VEC3"},{"bufferView":52,"componentType":5126,"count":18,"max":[1.0,1.0],"min":[0.0,0.0],"normalized":false,"type":"VEC2"},{"bufferView":53,"componentType":5126,"count":27,"max":[2.0,0.0,10.0],"min":[-2.0,-0.10000000149011612,6.0],"normalized":false,"type":"VEC3"},{"bufferView":54,"componentType":5126,"count":27,"max":[0.0,0.0,7.630093023180962e-05,-1.0],"min":[-1.0,-1.0,-1.0,-1.0],"normalized":false,"type":"VEC4"},{"bufferView":55,"componentType":5126,"count":27,"max":[0.0,1.0,1.0],"min":[-1.0,-1.0,-1.5259021893143654e-05],"normalized":false,"type":"VEC3"},{"bufferView":56,"componentType":5126,"count":27,"max":[1.0,1.0],"min":[0.0,0.0],"normalized":false,"type":"VEC2"},{"bufferView":57,"componentType":5126,"count":24,"max":[2.0,0.0,6.0],"min":[-2.0,-0.10000000149011612,2.0],"normalized":false,"type":"VEC3"},{"bufferView":58,"componentType":5126,"count":24,"max":[0.0,0.0,7.630093023180962e-05,-1.0],"min":[-1.0,-1.0,-1.0,-1.0],"normalized":false,"type":"VEC4"},{"bufferView":59,"componentType":5126,"count":24,"max":[0.0,1.0,-1.5259021893143654e-05],"min":[-1.0,-1.0,-1.0],"normalized":false,"type":"VEC3"},{"bufferView":60,"componentType":5126,"count":24,"max":[1.0,1.0],"min":[0.0,0.0],"normalized":false,"type":"VEC2"},{"bufferView":61,"componentType":5126,"count":24,"max":[18.0,0.0,6.0],"min":[14.0,-0.10000000149011612,2.0],"normalized":false,"type":"VEC3"},{"bufferView":62,"componentType":5126,"count":24,"max":[0.0,0.0,7.630093023180962e-05,-1.0],"min":[-1.0,-1.0,-1.0,-1.0],"normalized":false,"type":"VEC4"},{"bufferView":63,"componentType":5126,"count":24,"max":[1.0,1.0,-1.5259021893143654e-05],"min":[0.0,-1.0,-1.0],"normalized":false,"type":"VEC3"},{"bufferView":64,"componentType":5126,"count":24,"max":[1.0,1.0],"min":[0.0,0.0],"normalized":false,"type":"VEC2"},{"bufferView":65,"componentType":5126,"count":27,"max":[18.0,0.0,10.0],"min":[14.0,-0.10000000149011612,6.0],"normalized":false,"type":"VEC3"},{"bufferView":66,"componentType":5126,"count":27,"max":[0.0,0.0,7.630093023180962e-05,-1.0],"min":[-1.0,-1.0,-1.0,-1.0],"normalized":false,"type":"VEC4"},{"bufferView":67,"componentType":5126,"count":27,"max":[1.0,1.0,1.0],"min":[-1.5259254723787308e-05,-1.0,-1.5259021893143654e-05],"normalized":false,"type":"VEC3"},{"bufferView":68,"componentType":5126,"count":27,"max":[1.0,1.0],"min":[0.0,0.0],"normalized":false,"type":"VEC2"},{"bufferView":69,"componentType":5126,"count":33,"max":[14.0,0.0,2.0],"min":[10.0,-0.10000000149011612,-2.0],"normalized":false,"type":"VEC3"},{"bufferView":70,"componentType":5126,"count":33,"max":[0.0,0.0,7.630093023180962e-05,-1.0],"min":[-1.0,-1.0,-1.0,-1.0],"normalized":false,"type":"VEC4"},{"bufferView":71,"componentType":5126,"count":33,"max":[1.0,1.0,-1.5259021893143654e-05],"min":[0.0,-1.0,-1.0],"normalized":false,"type":"VEC3"},{"bufferView":72,"componentType":5126,"count":33,"max":[1.0,1.0],"min":[0.0,0.0],"normalized":false,"type":"VEC2"},{"bufferView":73,"componentType":5121,"count":33,"max":[32],"min":[0],"normalized":false,"type":"SCALAR"},{"bufferView":74,"componentType":5126,"count":24,"max":[10.149999618530273,3.0,17.850000381469727],"min":[9.850000381469727,0.0,14.0],"normalized":false,"type":"VEC3"},{"bufferView":75,"componentType":5126,"count":24,"max":[0.0,0.0,7.630093023180962e-05,-1.0],"min":[-1.5260186046361923e-05,-1.0,-1.0,-1.0],"normalized":false,"type":"VEC4"},{"bufferView":76,"componentType":5126,"count":24,"max":[1.0,1.0,-1.5259021893143654e-05],"min":[-1.0,0.0,-1.5259021893143654e-05],"normalized":false,"type":"VEC3"},{"bufferView":77,"componentType":5126,"count":24,"max":[1.0,1.0],"min":[0.0,0.0],"normalized":false,"type":"VEC2"},{"bufferView":78,"componentType":5126,"count":24,"max":[9.850000381469727,3.0,14.149999618530273],"min":[6.150000095367432,0.0,13.850000381469727],"normalized":false,"type":"VEC3"},{"bufferView":79,"componentType":5126,"count":24,"max":[0.0,0.0,-4.5778462663292885e-05,-1.0],"min":[-1.0,0.0,-1.0,-1.0],"normalized":false,"type":"VEC4"},{"bufferView":80,"componentType":5126,"count":24,"max":[0.0,1.0,1.0],"min":[-1.5259254723787308e-05,-1.5259254723787308e-05,-1.0],"normalized":false,"type":"VEC3"},{"bufferView":81,"componentType":5126,"count":24,"max":[1.0,1.0],"min":[0.0,0.0],"normalized":false,"type":"VEC2"},{"bufferView":82,"componentType":5126,"count":24,"max":[6.150000095367432,3.0,17.850000381469727],"min":[5.849999904632568,0.0,14.0],"normalized":false,"type":"VEC3"},{"bufferView":83,"componentType":5126,"count":24,"max":[1.0,1.0,-1.5259021893143654e-05],"min":[-1.0,0.0,-1.5259021893143654e-05],"normalized":false,"type":"VEC3"},{"bufferView":84,"componentType":5126,"count":24,"max":[1.0,1.0],"min":[0.0,0.0],"normalized":false,"type":"VEC2"},{"bufferView":85,"componentType":5126,"count":30,"max":[10.0,3.0,18.149999618530273],"min":[6.0,0.0,17.850000381469727],"normalized":false,"type":"VEC3"},{"bufferView":86,"componentType":5126,"count":30,"max":[0.0,0.0,-4.5778462663292885e-05,-1.0],"min":[-1.0,0.0,-1.0,-1.0],"normalized":false,"type":"VEC4"},{"bufferView":87,"componentType":5126,"count":30,"max":[0.0,1.0,1.0],"min":[-1.5259254723787308e-05,-1.0,-1.0],"normalized":false,"type":"VEC3"},{"bufferView":88,"componentType":5126,"count":30,"max":[1.0,1.0],"min":[0.0,0.0],"normalized":false,"type":"VEC2"},{"bufferView":89,"componentType":5126,"count":39,"max":[6.0,3.0,18.149999618530273],"min":[2.0,0.0,17.850000381469727],"normalized":false,"type":"VEC3"},{"bufferView":90,"componentType":5126,"count":39,"max":[0.0,0.0,7.630093023180962e-05,-1.0],"min":[-1.0,-1.0,-1.0,-1.0],"normalized":false,"type":"VEC4"},{"bufferView":91,"componentType":5126,"count":39,"max":[0.0,1.0,1.0],"min":[-1.0,-1.0,-1.0],"normalized":false,"type":"VEC3"},{"bufferView":92,"componentType":5126,"count":39,"max":[1.0,1.0],"min":[0.0,0.0],"normalized":false,"type":"VEC2"},{"bufferView":93,"componentType":5121,"count":39,"max":[38],"min":[0],"normalized":false,"type":"SCALAR"},{"bufferView":94,"componentType":5126,"count":36,"max":[2.1500000953674316,3.0,18.0],"min":[1.850000023841858,0.0,14.0],"normalized":false,"type":"VEC3"},{"bufferView":95,"componentType":5126,"count":36,"max":[0.0,0.0,7.630093023180962e-05,-1.0],"min":[-1.0,-1.0,-1.0,-1.0],"normalized":false,"type":"VEC4"},{"bufferView":96,"componentType":5126,"count":36,"max":[1.0,1.0,1.0],"min":[-1.0,-1.0,-1.5259021893143654e-05],"normalized":false,"type":"VEC3"},{"bufferView":97,"componentType":5126,"count":36,"max":[1.0,1.0],"min":[0.0,0.0],"normalized":false,"type":"VEC2"},{"bufferView":98,"componentType":5121,"count":36,"max":[35],"min":[0],"normalized":false,"type":"SCALAR"},{"bufferView":99,"componentType":5126,"count":39,"max":[14.0,3.0,18.149999618530273],"min":[10.0,0.0,17.850000381469727],"normalized":false,"type":"VEC3"},{"bufferView":100,"componentType":5126,"count":39,"max":[0.0,0.0,7.630093023180962e-05,-1.0],"min":[-1.0,-1.0,-1.0,-1.0],"normalized":false,"type":"VEC4"},{"bufferView":101,"componentType":5126,"count":39,"max":[1.0,1.0,1.0],"min":[-1.5259254723787308e-05,-1.0,-1.0],"normalized":false,"type":"VEC3"},{"bufferView":102,"componentType":5126,"count":39,"max":[1.0,1.0],"min":[0.0,0.0],"normalized":false,"type":"VEC2"},{"bufferView":103,"componentType":5126,"count":36,"max":[14.149999618530273,3.0,18.0],"min":[13.850000381469727,0.0,14.0],"normalized":false,"type":"VEC3"},{"bufferView":104,"componentType":5126,"count":36,"max":[1.0,1.0],"min":[0.0,0.0],"normalized":false,"type":"VEC2"},{"bufferView":105,"componentType":5126,"count":51,"max":[10.149999618530273,3.0,14.0],"min":[9.850000381469727,0.0,10.0],"normalized":false,"type":"VEC3"},{"bufferView":106,"componentType":5126,"count":51,"max":[0.0,0.0,7.630093023180962e-05,-1.0],"min":[-1.5260186046361923e-05,-1.0,-1.0,-1.0],"normalized":false,"type":"VEC4"},{"bufferView":107,"componentType":5126,"count":51,"max":[1.0,1.0,-1.5259021893143654e-05],"min":[-1.0,0.0,-1.5259021893143654e-05],"normalized":false,"type":"VEC3"},{"bufferView":108,"componentType":5126,"count":51,"max":[1.0,1.0],"min":[0.0,0.0],"normalized":false,"type":"VEC2"},{"bufferView":109,"componentType":5121,"count":51,"max":[50],"min":[0],"normalized":false,"type":"SCALAR"},{"bufferView":110,"componentType":5126,"count":48,"max":[10.149999618530273,2.0999999046325684,12.75],"min":[5.849999904632568,0.0,11.25],"normalized":false,"type":"VEC3"},{"bufferView":111,"componentType":5126,"count":48,"max":[-1.5259254723787308e-05,0.0,1.5259254723787308e-05,1.0],"min":[-1.0,-1.0,-1.5259021893143654e-05,1.0],"normalized":false,"type":"VEC4"},{"bufferView":112,"componentType":5126,"count":48,"max":[0.0,1.0,1.0],"min":[-1.5259254723787308e-05,-1.0,-1.0],"normalized":false,"type":"VEC3"},{"bufferView":113,"componentType":5126,"count":48,"max":[1.0,1.0],"min":[0.0,0.0],"normalized":false,"type":"VEC2"},{"bufferView":114,"componentType":5121,"count":48,"max":[47],"min":[0],"normalized":false,"type":"SCALAR"},{"bufferView":115,"componentType":5126,"count":51,"max":[6.150000095367432,3.0,14.0],"min":[5.849999904632568,0.0,10.0],"normalized":false,"type":"VEC3"},{"bufferView":116,"componentType":5126,"count":51,"max":[0.0,0.0,7.630093023180962e-05,-1.0],"min":[-1.5260186046361923e-05,-1.0,-1.0,-1.0],"normalized":false,"type":"VEC4"},{"bufferView":117,"componentType":5126,"count":51,"max":[1.0,1.0,-1.5259021893143654e-05],"min":[-1.0,0.0,-1.5259021893143654e-05],"normalized":false,"type":"VEC3"},{"bufferView":118,"componentType":5126,"count":51,"max":[1.0,1.0],"min":[0.0,0.0],"normalized":false,"type":"VEC2"},{"bufferView":119,"componentType":5126,"count":45,"max":[10.0,3.0,10.149999618530273],"min":[6.0,0.0,9.850000381469727],"normalized":false,"type":"VEC3"},{"bufferView":120,"componentType":5126,"count":45,"max":[0.0,0.0,-4.5778462663292885e-05,-1.0],"min":[-1.0,0.0,-1.0,-1.0],"normalized":false,"type":"VEC4"},{"bufferView":121,"componentType":5126,"count":45,"max":[0.0,1.0,1.0],"min":[-1.5259254723787308e-05,-1.0,-1.0],"normalized":false,"type":"VEC3"},{"bufferView":122,"componentType":5126,"count":45,"max":[1.0,1.0],"min":[0.0,0.0],"normalized":false,"type":"VEC2"},{"bufferView":123,"componentType":5121,"count":45,"max":[44],"min":[0],"normalized":false,"type":"SCALAR"},{"bufferView":124,"componentType":5126,"count":33,"max":[6.150000095367432,3.0,10.0],"min":[5.849999904632568,0.0,6.0],"normalized":false,"type":"VEC3"},{"bufferView":125,"componentType":5126,"count":33,"max":[0.0,0.0,7.630093023180962e-05,-1.0],"min":[-1.5260186046361923e-05,-1.0,-1.0,-1.0],"normalized":false,"type":"VEC4"},{"bufferView":126,"componentType":5126,"count":33,"max":[1.0,1.0,-1.5259021893143654e-05],"min":[-1.0,-1.0,-1.5259021893143654e-05],"normalized":false,"type":"VEC3"},{"bufferView":127,"componentType":5126,"count":33,"max":[1.0,1.0],"min":[0.0,0.0],"normalized":false,"type":"VEC2"},{"bufferView":128,"componentType":5126,"count":42,"max":[6.150000095367432,3.0,6.0],"min":[5.849999904632568,0.0,2.0],"normalized":false,"type":"VEC3"},{"bufferView":129,"componentType":5126,"count":42,"max":[0.0,0.0,7.630093023180962e-05,-1.0],"min":[-1.0,-1.0,-1.0,-1.0],"normalized":false,"type":"VEC4"},{"bufferView":130,"componentType":5126,"count":42,"max":[1.0,1.0,-1.5259021893143654e-05],"min":[-1.0,-1.0,-1.0],"normalized":false,"type":"VEC3"},{"bufferView":131,"componentType":5126,"count":42,"max":[1.0,1.0],"min":[0.0,0.0],"normalized":false,"type":"VEC2"},{"bufferView":132,"componentType":5121,"count":42,"max":[41],"min":[0],"normalized":false,"type":"SCALAR"},{"bufferView":133,"componentType":5126,"count":54,"max":[10.0,3.0,2.1500000953674316],"min":[6.0,0.0,1.850000023841858],"normalized":false,"type":"VEC3"},{"bufferView":134,"componentType":5126,"count":54,"max":[0.0,0.0,7.630093023180962e-05,-1.0],"min":[-1.0,-1.0,-1.0,-1.0],"normalized":false,"type":"VEC4"},{"bufferView":135,"componentType":5126,"count":54,"max":[1.0,1.0,1.0],"min":[-1.0,-1.0,-1.0],"normalized":false,"type":"VEC3"},{"bufferView":136,"componentType":5126,"count":54,"max":[1.0,1.0],"min":[0.0,0.0],"normalized":false,"type":"VEC2"},{"bufferView":137,"componentType":5121,"count":54,"max":[53],"min":[0],"normalized":false,"type":"SCALAR"},{"bufferView":138,"componentType":5126,"count":39,"max":[10.149999618530273,3.0,6.0],"min":[9.850000381469727,0.0,2.0],"normalized":false,"type":"VEC3"},{"bufferView":139,"componentType":5126,"count":39,"max":[0.0,0.0,7.630093023180962e-05,-1.0],"min":[-1.0,-1.0,-1.0,-1.0],"normalized":false,"type":"VEC4"},{"bufferView":140,"componentType":5126,"count":39,"max":[1.0,1.0,-1.5259021893143654e-05],"min":[-1.0,-1.0,-1.0],"normalized":false,"type":"VEC3"},{"bufferView":141,"componentType":5126,"count":39,"max":[1.0,1.0],"min":[0.0,0.0],"normalized":false,"type":"VEC2"},{"bufferView":142,"componentType":5126,"count":30,"max":[10.149999618530273,3.0,10.0],"min":[9.850000381469727,0.0,6.0],"normalized":false,"type":"VEC3"},{"bufferView":143,"componentType":5126,"count":30,"max":[0.0,0.0,7.630093023180962e-05,-1.0],"min":[-1.5260186046361923e-05,-1.0,-1.0,-1.0],"normalized":false,"type":"VEC4"},{"bufferView":144,"componentType":5126,"count":30,"max":[1.0,1.0,-1.5259021893143654e-05],"min":[-1.0,-1.0,-1.5259021893143654e-05],"normalized":false,"type":"VEC3"},{"bufferView":145,"componentType":5126,"count":30,"max":[1.0,1.0],"min":[0.0,0.0],"normalized":false,"type":"VEC2"},{"bufferView":146,"componentType":5126,"count":33,"max":[14.149999618530273,3.0,14.0],"min":[13.850000381469727,0.0,10.0],"normalized":false,"type":"VEC3"},{"bufferView":147,"componentType":5126,"count":33,"max":[0.0,0.0,7.630093023180962e-05,-1.0],"min":[-1.5260186046361923e-05,-1.0,-1.0,-1.0],"normalized":false,"type":"VEC4"},{"bufferView":148,"componentType":5126,"count":33,"max":[1.0,1.0,-1.5259021893143654e-05],"min":[-1.0,-1.0,-1.5259021893143654e-05],"normalized":false,"type":"VEC3"},{"bufferView":149,"componentType":5126,"count":33,"max":[1.0,1.0],"min":[0.0,0.0],"normalized":false,"type":"VEC2"},{"bufferView":150,"componentType":5126,"count":21,"max":[14.149999618530273,3.0,10.0],"min":[13.850000381469727,0.0,6.0],"normalized":false,"type":"VEC3"},{"bufferView":151,"componentType":5126,"count":21,"max":[0.0,0.0,7.630093023180962e-05,-1.0],"min":[-1.5260186046361923e-05,-1.0,-1.0,-1.0],"normalized":false,"type":"VEC4"},{"bufferView":152,"componentType":5126,"count":21,"max":[1.0,1.0,-1.5259021893143654e-05],"min":[-1.0,0.0,-1.5259021893143654e-05],"normalized":false,"type":"VEC3"},{"bufferView":153,"componentType":5126,"count":21,"max":[1.0,1.0],"min":[0.0,0.0],"normalized":false,"type":"VEC2"},{"bufferView":154,"componentType":5121,"count":21,"max":[20],"min":[0],"normalized":false,"type":"SCALAR"},{"bufferView":155,"componentType":5126,"count":33,"max":[2.1500000953674316,3.0,14.0],"min":[1.850000023841858,0.0,10.0],"normalized":false,"type":"VEC3"},{"bufferView":156,"componentType":5126,"count":33,"max":[1.0,1.0],"min":[0.0,0.0],"normalized":false,"type":"VEC2"},{"bufferView":157,"componentType":5126,"count":21,"max":[2.1500000953674316,3.0,10.0],"min":[1.850000023841858,0.0,6.0],"normalized":false,"type":"VEC3"},{"bufferView":158,"componentType":5126,"count":21,"max":[0.0,0.0,7.630093023180962e-05,-1.0],"min":[-1.5260186046361923e-05,-1.0,-1.0,-1.0],"normalized":false,"type":"VEC4"},{"bufferView":159,"componentType":5126,"count":21,"max":[1.0,1.0,-1.5259021893143654e-05],"min":[-1.0,0.0,-1.5259021893143654e-05],"normalized":false,"type":"VEC3"},{"bufferView":160,"componentType":5126,"count":21,"max":[1.0,1.0],"min":[0.0,0.0],"normalized":false,"type":"VEC2"},{"bufferView":161,"componentType":5126,"count":42,"max":[1.9943749904632568,3.0,10.149999618530273],"min":[-2.0,0.0,9.850000381469727],"normalized":false,"type":"VEC3"},{"bufferView":162,"componentType":5126,"count":42,"max":[0.0,0.0,7.630093023180962e-05,-1.0],"min":[-1.0,-1.0,-1.0,-1.0],"normalized":false,"type":"VEC4"},{"bufferView":163,"componentType":5126,"count":42,"max":[0.0,1.0,1.0],"min":[-1.0,-1.0,-1.0],"normalized":false,"type":"VEC3"},{"bufferView":164,"componentType":5126,"count":42,"max":[1.0,1.0],"min":[0.0,0.0],"normalized":false,"type":"VEC2"},{"bufferView":165,"componentType":5126,"count":36,"max":[-1.850000023841858,3.0,10.0],"min":[-2.1500000953674316,0.0,6.0],"normalized":false,"type":"VEC3"},{"bufferView":166,"componentType":5126,"count":36,"max":[0.0,0.0,7.630093023180962e-05,-1.0],"min":[-1.0,-1.0,-1.0,-1.0],"normalized":false,"type":"VEC4"},{"bufferView":167,"componentType":5126,"count":36,"max":[1.0,1.0,1.0],"min":[-1.0,-1.0,-1.5259021893143654e-05],"normalized":false,"type":"VEC3"},{"bufferView":168,"componentType":5126,"count":36,"max":[1.0,1.0],"min":[0.0,0.0],"normalized":false,"type":"VEC2"},{"bufferView":169,"componentType":5126,"count":36,"max":[-1.850000023841858,3.0,6.0],"min":[-2.1500000953674316,0.0,2.0],"normalized":false,"type":"VEC3"},{"bufferView":170,"componentType":5126,"count":36,"max":[0.0,0.0,7.630093023180962e-05,-1.0],"min":[-1.0,-1.0,-1.0,-1.0],"normalized":false,"type":"VEC4"},{"bufferView":171,"componentType":5126,"count":36,"max":[1.0,1.0,-1.5259021893143654e-05],"min":[-1.0,-1.0,-1.0],"normalized":false,"type":"VEC3"},{"bufferView":172,"componentType":5126,"count":36,"max":[1.0,1.0],"min":[0.0,0.0],"normalized":false,"type":"VEC2"},{"bufferView":173,"componentType":5126,"count":45,"max":[2.0,3.0,2.1500000953674316],"min":[-2.0,0.0,1.850000023841858],"normalized":false,"type":"VEC3"},{"bufferView":174,"componentType":5126,"count":45,"max":[0.0,0.0,7.630093023180962e-05,-1.0],"min":[-1.0,-1.0,-1.0,-1.0],"normalized":false,"type":"VEC4"},{"bufferView":175,"componentType":5126,"count":45,"max":[0.0,1.0,1.0],"min":[-1.0,-1.0,-1.0],"normalized":false,"type":"VEC3"},{"bufferView":176,"componentType":5126,"count":45,"max":[1.0,1.0],"min":[0.0,0.0],"normalized":false,"type":"VEC2"},{"bufferView":177,"componentType":5126,"count":24,"max":[2.1500000953674316,3.0,6.0],"min":[1.850000023841858,0.0,2.0],"normalized":false,"type":"VEC3"},{"bufferView":178,"componentType":5126,"count":24,"max":[1.0,1.0],"min":[0.0,0.0],"normalized":false,"type":"VEC2"},{"bufferView":179,"componentType":5126,"count":24,"max":[14.149999618530273,3.0,6.0],"min":[13.850000381469727,0.0,2.0],"normalized":false,"type":"VEC3"},{"bufferView":180,"componentType":5126,"count":24,"max":[1.0,1.0],"min":[0.0,0.0],"normalized":false,"type":"VEC2"},{"bufferView":181,"componentType":5126,"count":48,"max":[18.0,3.0,2.1500000953674316],"min":[14.0,0.0,1.850000023841858],"normalized":false,"type":"VEC3"},{"bufferView":182,"componentType":5126,"count":48,"max":[0.0,0.0,7.630093023180962e-05,-1.0],"min":[-1.0,-1.0,-1.0,-1.0],"normalized":false,"type":"VEC4"},{"bufferView":183,"componentType":5126,"count":48,"max":[1.0,1.0,1.0],"min":[-1.5259254723787308e-05,-1.0,-1.0],"normalized":false,"type":"VEC3"},{"bufferView":184,"componentType":5126,"count":48,"max":[1.0,1.0],"min":[0.0,0.0],"normalized":false,"type":"VEC2"},{"bufferView":185,"componentType":5126,"count":36,"max":[18.149999618530273,3.0,6.0],"min":[17.850000381469727,0.0,2.0],"normalized":false,"type":"VEC3"},{"bufferView":186,"componentType":5126,"count":36,"max":[1.0,1.0,-1.5259021893143654e-05],"min":[-1.0,-1.0,-1.0],"normalized":false,"type":"VEC3"},{"bufferView":187,"componentType":5126,"count":36,"max":[1.0,1.0],"min":[0.0,0.0],"normalized":false,"type":"VEC2"},{"bufferView":188,"componentType":5126,"count":36,"max":[18.149999618530273,3.0,10.0],"min":[17.850000381469727,0.0,6.0],"normalized":false,"type":"VEC3"},{"bufferView":189,"componentType":5126,"count":36,"max":[0.0,0.0,7.630093023180962e-05,-1.0],"min":[-1.0,-1.0,-1.0,-1.0],"normalized":false,"type":"VEC4"},{"bufferView":190,"componentType":5126,"count":36,"max":[1.0,1.0,1.0],"min":[-1.0,-1.0,-1.5259021893143654e-05],"normalized":false,"type":"VEC3"},{"bufferView":191,"componentType":5126,"count":36,"max":[1.0,1.0],"min":[0.0,0.0],"normalized":false,"type":"VEC2"},{"bufferView":192,"componentType":5126,"count":42,"max":[18.0,3.0,10.149999618530273],"min":[14.14437484741211,0.0,9.850000381469727],"normalized":false,"type":"VEC3"},{"bufferView":193,"componentType":5126,"count":42,"max":[0.0,0.0,7.630093023180962e-05,-1.0],"min":[-1.0,-1.0,-1.0,-1.0],"normalized":false,"type":"VEC4"},{"bufferView":194,"componentType":5126,"count":42,"max":[1.0,1.0,1.0],"min":[-1.5259254723787308e-05,-1.0,-1.0],"normalized":false,"type":"VEC3"},{"bufferView":195,"componentType":5126,"count":42,"max":[1.0,1.0],"min":[0.0,0.0],"normalized":false,"type":"VEC2"},{"bufferView":196,"componentType":5126,"count":42,"max":[14.149999618530273,3.0,2.0],"min":[13.850000381469727,0.0,-2.0],"normalized":false,"type":"VEC3"},{"bufferView":197,"componentType":5126,"count":42,"max":[0.0,0.0,7.630093023180962e-05,-1.0],"min":[-1.0,-1.0,-1.0,-1.0],"normalized":false,"type":"VEC4"},{"bufferView":198,"componentType":5126,"count":42,"max":[1.0,1.0,-1.5259021893143654e-05],"min":[-1.0,-1.0,-1.0],"normalized":false,"type":"VEC3"},{"bufferView":199,"componentType":5126,"count":42,"max":[1.0,1.0],"min":[0.0,0.0],"normalized":false,"type":"VEC2"},{"bufferView":200,"componentType":5126,"count":36,"max":[14.0,3.0,-1.850000023841858],"min":[10.0,0.0,-2.1500000953674316],"normalized":false,"type":"VEC3"},{"bufferView":201,"componentType":5126,"count":36,"max":[0.0,0.0,7.630093023180962e-05,-1.0],"min":[-1.0,-1.0,-1.0,-1.0],"normalized":false,"type":"VEC4"},{"bufferView":202,"componentType":5126,"count":36,"max":[1.0,1.0,1.0],"min":[-1.5259254723787308e-05,-1.0,-1.0],"normalized":false,"type":"VEC3"},{"bufferView":203,"componentType":5126,"count":36,"max":[1.0,1.0],"min":[0.0,0.0],"normalized":false,"type":"VEC2"},{"bufferView":204,"componentType":5126,"count":24,"max":[10.0,3.0,-1.850000023841858],"min":[6.0,0.0,-2.1500000953674316],"normalized":false,"type":"VEC3"},{"bufferView":205,"componentType":5126,"count":24,"max":[0.0,0.0,-4.5778462663292885e-05,-1.0],"min":[-1.0,0.0,-1.0,-1.0],"normalized":false,"type":"VEC4"},{"bufferView":206,"componentType":5126,"count":24,"max":[0.0,1.0,1.0],"min":[-1.5259254723787308e-05,-1.0,-1.0],"normalized":false,"type":"VEC3"},{"bufferView":207,"componentType":5126,"count":24,"max":[1.0,1.0],"min":[0.0,0.0],"normalized":false,"type":"VEC2"},{"bufferView":208,"componentType":5126,"count":36,"max":[6.0,3.0,-1.850000023841858],"min":[2.0,0.0,-2.1500000953674316],"normalized":false,"type":"VEC3"},{"bufferView":209,"componentType":5126,"count":36,"max":[0.0,0.0,7.630093023180962e-05,-1.0],"min":[-1.0,-1.0,-1.0,-1.0],"normalized":false,"type":"VEC4"},{"bufferView":210,"componentType":5126,"count":36,"max":[0.0,1.0,1.0],"min":[-1.0,-1.0,-1.0],"normalized":false,"type":"VEC3"},{"bufferView":211,"componentType":5126,"count":36,"max":[1.0,1.0],"min":[0.0,0.0],"normalized":false,"type":"VEC2"},{"bufferView":212,"componentType":5126,"count":42,"max":[2.1500000953674316,3.0,2.0],"min":[1.850000023841858,0.0,-2.0],"normalized":false,"type":"VEC3"},{"bufferView":213,"componentType":5126,"count":42,"max":[1.0,1.0],"min":[0.0,0.0],"normalized":false,"type":"VEC2"},{"bufferView":214,"componentType":5126,"count":341,"max":[0.050000011920928955,0.7509720921516418,1.100000023841858],"min":[-0.050000011920928955,-0.749027669429779,-1.0],"normalized":false,"type":"VEC3"},{"bufferView":215,"componentType":5126,"count":341,"max":[1.0,1.0,7.988188008312136e-05,1.0],"min":[-0.0561276338994503,0.0,-4.827289012609981e-05,-1.0],"normalized":false,"type":"VEC4"},{"bufferView":216,"componentType":5126,"count":341,"max":[1.0,1.0,1.0],"min":[-1.0,-1.0,-1.0],"normalized":false,"type":"VEC3"},{"bufferView":217,"componentType":5126,"count":341,"max":[0.8443872928619385,1.0460575819015503],"min":[0.13010162115097046,0.04605746269226074],"normalized":false,"type":"VEC2"},{"bufferView":218,"componentType":5123,"count":696,"max":[340],"min":[0],"normalized":false,"type":"SCALAR"},{"bufferView":219,"componentType":5126,"count":16,"max":[0.025000005960464478,0.6572222113609314,0.8693670034408569],"min":[-0.025000005960464478,-0.6552777290344238,-0.8693670034408569],"normalized":false,"type":"VEC3"},{"bufferView":220,"componentType":5126,"count":16,"max":[0.0,1.0,-1.5259021893143654e-05,1.0],"min":[0.0,1.0,-1.5259021893143654e-05,-1.0],"normalized":false,"type":"VEC4"},{"bufferView":221,"componentType":5126,"count":16,"max":[1.0,0.0,-1.5259021893143654e-05],"min":[-1.0,0.0,-1.5259021893143654e-05],"normalized":false,"type":"VEC3"},{"bufferView":222,"componentType":5126,"count":16,"max":[0.828125,0.9346835017204285],"min":[0.1718750298023224,0.06531649827957153],"normalized":false,"type":"VEC2"},{"bufferView":223,"componentType":5121,"count":16,"max":[0,0,0,0],"min":[0,0,0,0],"normalized":false,"type":"VEC4"},{"bufferView":224,"componentType":5126,"count":16,"max":[1.0,0.0,0.0,0.0],"min":[1.0,0.0,0.0,0.0],"normalized":false,"type":"VEC4"},{"bufferView":225,"componentType":5121,"count":24,"max":[15],"min":[0],"normalized":false,"type":"SCALAR"},{"bufferView":226,"componentType":5126,"count":68,"max":[0.025000005960464478,0.6572222113609314,1.0],"min":[-0.025000005960464478,-0.6552777290344238,-1.0],"normalized":false,"type":"VEC3"},{"bufferView":227,"componentType":5126,"count":68,"max":[1.0,1.0,-1.5259021893143654e-05,1.0],"min":[0.0,0.0,-4.5778462663292885e-05,-1.0],"normalized":false,"type":"VEC4"},{"bufferView":228,"componentType":5126,"count":68,"max":[1.0,1.0,1.0],"min":[-1.0,-1.0,-1.0],"normalized":false,"type":"VEC3"},{"bufferView":229,"componentType":5126,"count":68,"max":[0.828125,1.0],"min":[0.1718750298023224,0.0],"normalized":false,"type":"VEC2"},{"bufferView":230,"componentType":5121,"count":68,"max":[0,0,0,0],"min":[0,0,0,0],"normalized":false,"type":"VEC4"},{"bufferView":231,"componentType":5126,"count":68,"max":[1.0,0.0,0.0,0.0],"min":[1.0,0.0,0.0,0.0],"normalized":false,"type":"VEC4"},{"bufferView":232,"componentType":5121,"count":108,"max":[67],"min":[0],"normalized":false,"type":"SCALAR"},{"bufferView":233,"componentType":5126,"count":12,"max":[0.025000005960464478,0.6572222113609314,0.5795779824256897],"min":[-0.025000005960464478,-0.6552777290344238,-0.5795779824256897],"normalized":false,"type":"VEC3"},{"bufferView":234,"componentType":5126,"count":12,"max":[0.0,1.0,-1.5259021893143654e-05,1.0],"min":[0.0,1.0,-1.5259021893143654e-05,-1.0],"normalized":false,"type":"VEC4"},{"bufferView":235,"componentType":5126,"count":12,"max":[1.0,0.0,-1.5259021893143654e-05],"min":[-1.0,0.0,-1.5259021893143654e-05],"normalized":false,"type":"VEC3"},{"bufferView":236,"componentType":5126,"count":12,"max":[0.828125,0.7897889614105225],"min":[0.1718750298023224,0.21021103858947754],"normalized":false,"type":"VEC2"},{"bufferView":237,"componentType":5121,"count":12,"max":[0,0,0,0],"min":[0,0,0,0],"normalized":false,"type":"VEC4"},{"bufferView":238,"componentType":5126,"count":12,"max":[1.0,0.0,0.0,0.0],"min":[1.0,0.0,0.0,0.0],"normalized":false,"type":"VEC4"},{"bufferView":239,"componentType":5121,"count":24,"max":[11],"min":[0],"normalized":false,"type":"SCALAR"},{"bufferView":240,"componentType":5126,"count":1,"max":[0.0],"min":[0.0],"normalized":false,"type":"SCALAR"},{"bufferView":241,"componentType":5126,"count":1,"max":[0.0,0.0,-0.25],"min":[0.0,0.0,-0.25],"normalized":false,"type":"VEC3"},{"bufferView":242,"componentType":5126,"count":4,"max":[0.125],"min":[0.0],"normalized":false,"type":"SCALAR"},{"bufferView":243,"componentType":5126,"count":4,"max":[0.0,0.0,0.017999999225139618],"min":[0.0,0.0,-0.0024999999441206455],"normalized":false,"type":"VEC3"},{"bufferView":244,"componentType":5126,"count":1,"max":[0.0,0.0,1.6950000524520874],"min":[0.0,0.0,1.6950000524520874],"normalized":false,"type":"VEC3"},{"bufferView":245,"componentType":5126,"count":5,"max":[0.23333333432674408],"min":[0.0],"normalized":false,"type":"SCALAR"},{"bufferView":246,"componentType":5126,"count":5,"max":[0.0,0.0,0.017999999225139618],"min":[0.0,0.0,-0.0024999999441206455],"normalized":false,"type":"VEC3"}],"animations":[{"channels":[{"sampler":0,"target":{"node":7,"path":"translation"}}],"name":"blast_door_1_anims_Armature|Closed","samplers":[{"input":240,"interpolation":"LINEAR","output":241}]},{"channels":[{"sampler":0,"target":{"node":7,"path":"translation"}}],"name":"blast_door_1_anims_Armature|Closing","samplers":[{"input":242,"interpolation":"LINEAR","output":243}]},{"channels":[{"sampler":0,"target":{"node":7,"path":"translation"}}],"name":"blast_door_1_anims_Armature|Open","samplers":[{"input":240,"interpolation":"LINEAR","output":244}]},{"channels":[{"sampler":0,"target":{"node":7,"path":"translation"}}],"name":"blast_door_1_anims_Armature|Opening","samplers":[{"input":245,"interpolation":"LINEAR","output":246}]},{"channels":[{"sampler":0,"target":{"node":15,"path":"translation"}}],"name":"blast_door_1_anims_Armature|Closed2","samplers":[{"input":240,"interpolation":"LINEAR","output":241}]},{"channels":[{"sampler":0,"target":{"node":15,"path":"translation"}}],"name":"blast_door_1_anims_Armature|Closing2","samplers":[{"input":242,"interpolation":"LINEAR","output":243}]},{"channels":[{"sampler":0,"target":{"node":15,"path":"translation"}}],"name":"blast_door_1_anims_Armature|Open2","samplers":[{"input":240,"interpolation":"LINEAR","output":244}]},{"channels":[{"sampler":0,"target":{"node":15,"path":"translation"}}],"name":"blast_door_1_anims_Armature|Opening2","samplers":[{"input":245,"interpolation":"LINEAR","output":246}]}],"asset":{"generator":"Godot Engine v4.7.stable.official@5b4e0cb0fd279832bbdd69fed5354d4e5ad26f88","version":"2.0"},"bufferViews":[{"buffer":0,"byteLength":64},{"buffer":0,"byteLength":360,"byteOffset":64,"byteStride":12,"target":34962},{"buffer":0,"byteLength":480,"byteOffset":424,"byteStride":16,"target":34962},{"buffer":0,"byteLength":360,"byteOffset":904,"byteStride":12,"target":34962},{"buffer":0,"byteLength":240,"byteOffset":1264,"byteStride":8,"target":34962},{"buffer":0,"byteLength":30,"byteOffset":1504,"target":34963},{"buffer":0,"byteLength":288,"byteOffset":1536,"byteStride":12,"target":34962},{"buffer":0,"byteLength":384,"byteOffset":1824,"byteStride":16,"target":34962},{"buffer":0,"byteLength":288,"byteOffset":2208,"byteStride":12,"target":34962},{"buffer":0,"byteLength":192,"byteOffset":2496,"byteStride":8,"target":34962},{"buffer":0,"byteLength":24,"byteOffset":2688,"target":34963},{"buffer":0,"byteLength":288,"byteOffset":2712,"byteStride":12,"target":34962},{"buffer":0,"byteLength":384,"byteOffset":3000,"byteStride":16,"target":34962},{"buffer":0,"byteLength":288,"byteOffset":3384,"byteStride":12,"target":34962},{"buffer":0,"byteLength":192,"byteOffset":3672,"byteStride":8,"target":34962},{"buffer":0,"byteLength":288,"byteOffset":3864,"byteStride":12,"target":34962},{"buffer":0,"byteLength":384,"byteOffset":4152,"byteStride":16,"target":34962},{"buffer":0,"byteLength":288,"byteOffset":4536,"byteStride":12,"target":34962},{"buffer":0,"byteLength":192,"byteOffset":4824,"byteStride":8,"target":34962},{"buffer":0,"byteLength":288,"byteOffset":5016,"byteStride":12,"target":34962},{"buffer":0,"byteLength":384,"byteOffset":5304,"byteStride":16,"target":34962},{"buffer":0,"byteLength":288,"byteOffset":5688,"byteStride":12,"target":34962},{"buffer":0,"byteLength":192,"byteOffset":5976,"byteStride":8,"target":34962},{"buffer":0,"byteLength":216,"byteOffset":6168,"byteStride":12,"target":34962},{"buffer":0,"byteLength":288,"byteOffset":6384,"byteStride":16,"target":34962},{"buffer":0,"byteLength":216,"byteOffset":6672,"byteStride":12,"target":34962},{"buffer":0,"byteLength":144,"byteOffset":6888,"byteStride":8,"target":34962},{"buffer":0,"byteLength":18,"byteOffset":7032,"target":34963},{"buffer":0,"byteLength":216,"byteOffset":7052,"byteStride":12,"target":34962},{"buffer":0,"byteLength":288,"byteOffset":7268,"byteStride":16,"target":34962},{"buffer":0,"byteLength":216,"byteOffset":7556,"byteStride":12,"target":34962},{"buffer":0,"byteLength":144,"byteOffset":7772,"byteStride":8,"target":34962},{"buffer":0,"byteLength":216,"byteOffset":7916,"byteStride":12,"target":34962},{"buffer":0,"byteLength":288,"byteOffset":8132,"byteStride":16,"target":34962},{"buffer":0,"byteLength":216,"byteOffset":8420,"byteStride":12,"target":34962},{"buffer":0,"byteLength":144,"byteOffset":8636,"byteStride":8,"target":34962},{"buffer":0,"byteLength":324,"byteOffset":8780,"byteStride":12,"target":34962},{"buffer":0,"byteLength":432,"byteOffset":9104,"byteStride":16,"target":34962},{"buffer":0,"byteLength":324,"byteOffset":9536,"byteStride":12,"target":34962},{"buffer":0,"byteLength":216,"byteOffset":9860,"byteStride":8,"target":34962},{"buffer":0,"byteLength":27,"byteOffset":10076,"target":34963},{"buffer":0,"byteLength":360,"byteOffset":10104,"byteStride":12,"target":34962},{"buffer":0,"byteLength":480,"byteOffset":10464,"byteStride":16,"target":34962},{"buffer":0,"byteLength":360,"byteOffset":10944,"byteStride":12,"target":34962},{"buffer":0,"byteLength":240,"byteOffset":11304,"byteStride":8,"target":34962},{"buffer":0,"byteLength":216,"byteOffset":11544,"byteStride":12,"target":34962},{"buffer":0,"byteLength":288,"byteOffset":11760,"byteStride":16,"target":34962},{"buffer":0,"byteLength":216,"byteOffset":12048,"byteStride":12,"target":34962},{"buffer":0,"byteLength":144,"byteOffset":12264,"byteStride":8,"target":34962},{"buffer":0,"byteLength":216,"byteOffset":12408,"byteStride":12,"target":34962},{"buffer":0,"byteLength":288,"byteOffset":12624,"byteStride":16,"target":34962},{"buffer":0,"byteLength":216,"byteOffset":12912,"byteStride":12,"target":34962},{"buffer":0,"byteLength":144,"byteOffset":13128,"byteStride":8,"target":34962},{"buffer":0,"byteLength":324,"byteOffset":13272,"byteStride":12,"target":34962},{"buffer":0,"byteLength":432,"byteOffset":13596,"byteStride":16,"target":34962},{"buffer":0,"byteLength":324,"byteOffset":14028,"byteStride":12,"target":34962},{"buffer":0,"byteLength":216,"byteOffset":14352,"byteStride":8,"target":34962},{"buffer":0,"byteLength":288,"byteOffset":14568,"byteStride":12,"target":34962},{"buffer":0,"byteLength":384,"byteOffset":14856,"byteStride":16,"target":34962},{"buffer":0,"byteLength":288,"byteOffset":15240,"byteStride":12,"target":34962},{"buffer":0,"byteLength":192,"byteOffset":15528,"byteStride":8,"target":34962},{"buffer":0,"byteLength":288,"byteOffset":15720,"byteStride":12,"target":34962},{"buffer":0,"byteLength":384,"byteOffset":16008,"byteStride":16,"target":34962},{"buffer":0,"byteLength":288,"byteOffset":16392,"byteStride":12,"target":34962},{"buffer":0,"byteLength":192,"byteOffset":16680,"byteStride":8,"target":34962},{"buffer":0,"byteLength":324,"byteOffset":16872,"byteStride":12,"target":34962},{"buffer":0,"byteLength":432,"byteOffset":17196,"byteStride":16,"target":34962},{"buffer":0,"byteLength":324,"byteOffset":17628,"byteStride":12,"target":34962},{"buffer":0,"byteLength":216,"byteOffset":17952,"byteStride":8,"target":34962},{"buffer":0,"byteLength":396,"byteOffset":18168,"byteStride":12,"target":34962},{"buffer":0,"byteLength":528,"byteOffset":18564,"byteStride":16,"target":34962},{"buffer":0,"byteLength":396,"byteOffset":19092,"byteStride":12,"target":34962},{"buffer":0,"byteLength":264,"byteOffset":19488,"byteStride":8,"target":34962},{"buffer":0,"byteLength":33,"byteOffset":19752,"target":34963},{"buffer":0,"byteLength":288,"byteOffset":19788,"byteStride":12,"target":34962},{"buffer":0,"byteLength":384,"byteOffset":20076,"byteStride":16,"target":34962},{"buffer":0,"byteLength":288,"byteOffset":20460,"byteStride":12,"target":34962},{"buffer":0,"byteLength":192,"byteOffset":20748,"byteStride":8,"target":34962},{"buffer":0,"byteLength":288,"byteOffset":20940,"byteStride":12,"target":34962},{"buffer":0,"byteLength":384,"byteOffset":21228,"byteStride":16,"target":34962},{"buffer":0,"byteLength":288,"byteOffset":21612,"byteStride":12,"target":34962},{"buffer":0,"byteLength":192,"byteOffset":21900,"byteStride":8,"target":34962},{"buffer":0,"byteLength":288,"byteOffset":22092,"byteStride":12,"target":34962},{"buffer":0,"byteLength":288,"byteOffset":22380,"byteStride":12,"target":34962},{"buffer":0,"byteLength":192,"byteOffset":22668,"byteStride":8,"target":34962},{"buffer":0,"byteLength":360,"byteOffset":22860,"byteStride":12,"target":34962},{"buffer":0,"byteLength":480,"byteOffset":23220,"byteStride":16,"target":34962},{"buffer":0,"byteLength":360,"byteOffset":23700,"byteStride":12,"target":34962},{"buffer":0,"byteLength":240,"byteOffset":24060,"byteStride":8,"target":34962},{"buffer":0,"byteLength":468,"byteOffset":24300,"byteStride":12,"target":34962},{"buffer":0,"byteLength":624,"byteOffset":24768,"byteStride":16,"target":34962},{"buffer":0,"byteLength":468,"byteOffset":25392,"byteStride":12,"target":34962},{"buffer":0,"byteLength":312,"byteOffset":25860,"byteStride":8,"target":34962},{"buffer":0,"byteLength":39,"byteOffset":26172,"target":34963},{"buffer":0,"byteLength":432,"byteOffset":26212,"byteStride":12,"target":34962},{"buffer":0,"byteLength":576,"byteOffset":26644,"byteStride":16,"target":34962},{"buffer":0,"byteLength":432,"byteOffset":27220,"byteStride":12,"target":34962},{"buffer":0,"byteLength":288,"byteOffset":27652,"byteStride":8,"target":34962},{"buffer":0,"byteLength":36,"byteOffset":27940,"target":34963},{"buffer":0,"byteLength":468,"byteOffset":27976,"byteStride":12,"target":34962},{"buffer":0,"byteLength":624,"byteOffset":28444,"byteStride":16,"target":34962},{"buffer":0,"byteLength":468,"byteOffset":29068,"byteStride":12,"target":34962},{"buffer":0,"byteLength":312,"byteOffset":29536,"byteStride":8,"target":34962},{"buffer":0,"byteLength":432,"byteOffset":29848,"byteStride":12,"target":34962},{"buffer":0,"byteLength":288,"byteOffset":30280,"byteStride":8,"target":34962},{"buffer":0,"byteLength":612,"byteOffset":30568,"byteStride":12,"target":34962},{"buffer":0,"byteLength":816,"byteOffset":31180,"byteStride":16,"target":34962},{"buffer":0,"byteLength":612,"byteOffset":31996,"byteStride":12,"target":34962},{"buffer":0,"byteLength":408,"byteOffset":32608,"byteStride":8,"target":34962},{"buffer":0,"byteLength":51,"byteOffset":33016,"target":34963},{"buffer":0,"byteLength":576,"byteOffset":33068,"byteStride":12,"target":34962},{"buffer":0,"byteLength":768,"byteOffset":33644,"byteStride":16,"target":34962},{"buffer":0,"byteLength":576,"byteOffset":34412,"byteStride":12,"target":34962},{"buffer":0,"byteLength":384,"byteOffset":34988,"byteStride":8,"target":34962},{"buffer":0,"byteLength":48,"byteOffset":35372,"target":34963},{"buffer":0,"byteLength":612,"byteOffset":35420,"byteStride":12,"target":34962},{"buffer":0,"byteLength":816,"byteOffset":36032,"byteStride":16,"target":34962},{"buffer":0,"byteLength":612,"byteOffset":36848,"byteStride":12,"target":34962},{"buffer":0,"byteLength":408,"byteOffset":37460,"byteStride":8,"target":34962},{"buffer":0,"byteLength":540,"byteOffset":37868,"byteStride":12,"target":34962},{"buffer":0,"byteLength":720,"byteOffset":38408,"byteStride":16,"target":34962},{"buffer":0,"byteLength":540,"byteOffset":39128,"byteStride":12,"target":34962},{"buffer":0,"byteLength":360,"byteOffset":39668,"byteStride":8,"target":34962},{"buffer":0,"byteLength":45,"byteOffset":40028,"target":34963},{"buffer":0,"byteLength":396,"byteOffset":40076,"byteStride":12,"target":34962},{"buffer":0,"byteLength":528,"byteOffset":40472,"byteStride":16,"target":34962},{"buffer":0,"byteLength":396,"byteOffset":41000,"byteStride":12,"target":34962},{"buffer":0,"byteLength":264,"byteOffset":41396,"byteStride":8,"target":34962},{"buffer":0,"byteLength":504,"byteOffset":41660,"byteStride":12,"target":34962},{"buffer":0,"byteLength":672,"byteOffset":42164,"byteStride":16,"target":34962},{"buffer":0,"byteLength":504,"byteOffset":42836,"byteStride":12,"target":34962},{"buffer":0,"byteLength":336,"byteOffset":43340,"byteStride":8,"target":34962},{"buffer":0,"byteLength":42,"byteOffset":43676,"target":34963},{"buffer":0,"byteLength":648,"byteOffset":43720,"byteStride":12,"target":34962},{"buffer":0,"byteLength":864,"byteOffset":44368,"byteStride":16,"target":34962},{"buffer":0,"byteLength":648,"byteOffset":45232,"byteStride":12,"target":34962},{"buffer":0,"byteLength":432,"byteOffset":45880,"byteStride":8,"target":34962},{"buffer":0,"byteLength":54,"byteOffset":46312,"target":34963},{"buffer":0,"byteLength":468,"byteOffset":46368,"byteStride":12,"target":34962},{"buffer":0,"byteLength":624,"byteOffset":46836,"byteStride":16,"target":34962},{"buffer":0,"byteLength":468,"byteOffset":47460,"byteStride":12,"target":34962},{"buffer":0,"byteLength":312,"byteOffset":47928,"byteStride":8,"target":34962},{"buffer":0,"byteLength":360,"byteOffset":48240,"byteStride":12,"target":34962},{"buffer":0,"byteLength":480,"byteOffset":48600,"byteStride":16,"target":34962},{"buffer":0,"byteLength":360,"byteOffset":49080,"byteStride":12,"target":34962},{"buffer":0,"byteLength":240,"byteOffset":49440,"byteStride":8,"target":34962},{"buffer":0,"byteLength":396,"byteOffset":49680,"byteStride":12,"target":34962},{"buffer":0,"byteLength":528,"byteOffset":50076,"byteStride":16,"target":34962},{"buffer":0,"byteLength":396,"byteOffset":50604,"byteStride":12,"target":34962},{"buffer":0,"byteLength":264,"byteOffset":51000,"byteStride":8,"target":34962},{"buffer":0,"byteLength":252,"byteOffset":51264,"byteStride":12,"target":34962},{"buffer":0,"byteLength":336,"byteOffset":51516,"byteStride":16,"target":34962},{"buffer":0,"byteLength":252,"byteOffset":51852,"byteStride":12,"target":34962},{"buffer":0,"byteLength":168,"byteOffset":52104,"byteStride":8,"target":34962},{"buffer":0,"byteLength":21,"byteOffset":52272,"target":34963},{"buffer":0,"byteLength":396,"byteOffset":52296,"byteStride":12,"target":34962},{"buffer":0,"byteLength":264,"byteOffset":52692,"byteStride":8,"target":34962},{"buffer":0,"byteLength":252,"byteOffset":52956,"byteStride":12,"target":34962},{"buffer":0,"byteLength":336,"byteOffset":53208,"byteStride":16,"target":34962},{"buffer":0,"byteLength":252,"byteOffset":53544,"byteStride":12,"target":34962},{"buffer":0,"byteLength":168,"byteOffset":53796,"byteStride":8,"target":34962},{"buffer":0,"byteLength":504,"byteOffset":53964,"byteStride":12,"target":34962},{"buffer":0,"byteLength":672,"byteOffset":54468,"byteStride":16,"target":34962},{"buffer":0,"byteLength":504,"byteOffset":55140,"byteStride":12,"target":34962},{"buffer":0,"byteLength":336,"byteOffset":55644,"byteStride":8,"target":34962},{"buffer":0,"byteLength":432,"byteOffset":55980,"byteStride":12,"target":34962},{"buffer":0,"byteLength":576,"byteOffset":56412,"byteStride":16,"target":34962},{"buffer":0,"byteLength":432,"byteOffset":56988,"byteStride":12,"target":34962},{"buffer":0,"byteLength":288,"byteOffset":57420,"byteStride":8,"target":34962},{"buffer":0,"byteLength":432,"byteOffset":57708,"byteStride":12,"target":34962},{"buffer":0,"byteLength":576,"byteOffset":58140,"byteStride":16,"target":34962},{"buffer":0,"byteLength":432,"byteOffset":58716,"byteStride":12,"target":34962},{"buffer":0,"byteLength":288,"byteOffset":59148,"byteStride":8,"target":34962},{"buffer":0,"byteLength":540,"byteOffset":59436,"byteStride":12,"target":34962},{"buffer":0,"byteLength":720,"byteOffset":59976,"byteStride":16,"target":34962},{"buffer":0,"byteLength":540,"byteOffset":60696,"byteStride":12,"target":34962},{"buffer":0,"byteLength":360,"byteOffset":61236,"byteStride":8,"target":34962},{"buffer":0,"byteLength":288,"byteOffset":61596,"byteStride":12,"target":34962},{"buffer":0,"byteLength":192,"byteOffset":61884,"byteStride":8,"target":34962},{"buffer":0,"byteLength":288,"byteOffset":62076,"byteStride":12,"target":34962},{"buffer":0,"byteLength":192,"byteOffset":62364,"byteStride":8,"target":34962},{"buffer":0,"byteLength":576,"byteOffset":62556,"byteStride":12,"target":34962},{"buffer":0,"byteLength":768,"byteOffset":63132,"byteStride":16,"target":34962},{"buffer":0,"byteLength":576,"byteOffset":63900,"byteStride":12,"target":34962},{"buffer":0,"byteLength":384,"byteOffset":64476,"byteStride":8,"target":34962},{"buffer":0,"byteLength":432,"byteOffset":64860,"byteStride":12,"target":34962},{"buffer":0,"byteLength":432,"byteOffset":65292,"byteStride":12,"target":34962},{"buffer":0,"byteLength":288,"byteOffset":65724,"byteStride":8,"target":34962},{"buffer":0,"byteLength":432,"byteOffset":66012,"byteStride":12,"target":34962},{"buffer":0,"byteLength":576,"byteOffset":66444,"byteStride":16,"target":34962},{"buffer":0,"byteLength":432,"byteOffset":67020,"byteStride":12,"target":34962},{"buffer":0,"byteLength":288,"byteOffset":67452,"byteStride":8,"target":34962},{"buffer":0,"byteLength":504,"byteOffset":67740,"byteStride":12,"target":34962},{"buffer":0,"byteLength":672,"byteOffset":68244,"byteStride":16,"target":34962},{"buffer":0,"byteLength":504,"byteOffset":68916,"byteStride":12,"target":34962},{"buffer":0,"byteLength":336,"byteOffset":69420,"byteStride":8,"target":34962},{"buffer":0,"byteLength":504,"byteOffset":69756,"byteStride":12,"target":34962},{"buffer":0,"byteLength":672,"byteOffset":70260,"byteStride":16,"target":34962},{"buffer":0,"byteLength":504,"byteOffset":70932,"byteStride":12,"target":34962},{"buffer":0,"byteLength":336,"byteOffset":71436,"byteStride":8,"target":34962},{"buffer":0,"byteLength":432,"byteOffset":71772,"byteStride":12,"target":34962},{"buffer":0,"byteLength":576,"byteOffset":72204,"byteStride":16,"target":34962},{"buffer":0,"byteLength":432,"byteOffset":72780,"byteStride":12,"target":34962},{"buffer":0,"byteLength":288,"byteOffset":73212,"byteStride":8,"target":34962},{"buffer":0,"byteLength":288,"byteOffset":73500,"byteStride":12,"target":34962},{"buffer":0,"byteLength":384,"byteOffset":73788,"byteStride":16,"target":34962},{"buffer":0,"byteLength":288,"byteOffset":74172,"byteStride":12,"target":34962},{"buffer":0,"byteLength":192,"byteOffset":74460,"byteStride":8,"target":34962},{"buffer":0,"byteLength":432,"byteOffset":74652,"byteStride":12,"target":34962},{"buffer":0,"byteLength":576,"byteOffset":75084,"byteStride":16,"target":34962},{"buffer":0,"byteLength":432,"byteOffset":75660,"byteStride":12,"target":34962},{"buffer":0,"byteLength":288,"byteOffset":76092,"byteStride":8,"target":34962},{"buffer":0,"byteLength":504,"byteOffset":76380,"byteStride":12,"target":34962},{"buffer":0,"byteLength":336,"byteOffset":76884,"byteStride":8,"target":34962},{"buffer":0,"byteLength":4092,"byteOffset":77220,"byteStride":12,"target":34962},{"buffer":0,"byteLength":5456,"byteOffset":81312,"byteStride":16,"target":34962},{"buffer":0,"byteLength":4092,"byteOffset":86768,"byteStride":12,"target":34962},{"buffer":0,"byteLength":2728,"byteOffset":90860,"byteStride":8,"target":34962},{"buffer":0,"byteLength":1392,"byteOffset":93588,"target":34963},{"buffer":0,"byteLength":192,"byteOffset":94980,"byteStride":12,"target":34962},{"buffer":0,"byteLength":256,"byteOffset":95172,"byteStride":16,"target":34962},{"buffer":0,"byteLength":192,"byteOffset":95428,"byteStride":12,"target":34962},{"buffer":0,"byteLength":128,"byteOffset":95620,"byteStride":8,"target":34962},{"buffer":0,"byteLength":64,"byteOffset":95748,"byteStride":4,"target":34962},{"buffer":0,"byteLength":256,"byteOffset":95812,"byteStride":16,"target":34962},{"buffer":0,"byteLength":24,"byteOffset":96068,"target":34963},{"buffer":0,"byteLength":816,"byteOffset":96092,"byteStride":12,"target":34962},{"buffer":0,"byteLength":1088,"byteOffset":96908,"byteStride":16,"target":34962},{"buffer":0,"byteLength":816,"byteOffset":97996,"byteStride":12,"target":34962},{"buffer":0,"byteLength":544,"byteOffset":98812,"byteStride":8,"target":34962},{"buffer":0,"byteLength":272,"byteOffset":99356,"byteStride":4,"target":34962},{"buffer":0,"byteLength":1088,"byteOffset":99628,"byteStride":16,"target":34962},{"buffer":0,"byteLength":108,"byteOffset":100716,"target":34963},{"buffer":0,"byteLength":144,"byteOffset":100824,"byteStride":12,"target":34962},{"buffer":0,"byteLength":192,"byteOffset":100968,"byteStride":16,"target":34962},{"buffer":0,"byteLength":144,"byteOffset":101160,"byteStride":12,"target":34962},{"buffer":0,"byteLength":96,"byteOffset":101304,"byteStride":8,"target":34962},{"buffer":0,"byteLength":48,"byteOffset":101400,"byteStride":4,"target":34962},{"buffer":0,"byteLength":192,"byteOffset":101448,"byteStride":16,"target":34962},{"buffer":0,"byteLength":24,"byteOffset":101640,"target":34963},{"buffer":0,"byteLength":4,"byteOffset":101664},{"buffer":0,"byteLength":12,"byteOffset":101668},{"buffer":0,"byteLength":16,"byteOffset":101680},{"buffer":0,"byteLength":48,"byteOffset":101696},{"buffer":0,"byteLength":12,"byteOffset":101744},{"buffer":0,"byteLength":20,"byteOffset":101756},{"buffer":0,"byteLength":60,"byteOffset":101776}],"buffers":[{"byteLength":101836,"uri":"Node3D0.bin"}],"extensionsUsed":["GODOT_single_root","KHR_materials_emissive_strength"],"materials":[{"pbrMetallicRoughness":{"baseColorFactor":[0.3854500949382782,0.09167509526014328,0.07289403676986694,1.0],"metallicFactor":0.0,"roughnessFactor":1.0}},{"pbrMetallicRoughness":{"baseColorFactor":[0.030855616554617882,0.9368458986282349,0.8666849732398987,1.0],"metallicFactor":0.0,"roughnessFactor":1.0}},{"pbrMetallicRoughness":{"baseColorFactor":[0.006621228065341711,0.4293278157711029,0.03516160696744919,1.0],"metallicFactor":0.0,"roughnessFactor":1.0}},{"pbrMetallicRoughness":{"baseColorFactor":[0.005852573085576296,0.754766047000885,0.017096301540732384,1.0],"metallicFactor":0.0,"roughnessFactor":1.0}},{"pbrMetallicRoughness":{"baseColorFactor":[0.021419191733002663,0.13219131529331207,0.15993770956993103,1.0],"metallicFactor":0.0,"roughnessFactor":1.0}},{"pbrMetallicRoughness":{"baseColorFactor":[0.13865172863006592,0.5296235680580139,0.2984361946582794,1.0],"metallicFactor":0.0,"roughnessFactor":1.0}},{"pbrMetallicRoughness":{"baseColorFactor":[0.11737922579050064,0.9593032598495483,0.16182057559490204,1.0],"metallicFactor":0.0,"roughnessFactor":1.0}},{"pbrMetallicRoughness":{"baseColorFactor":[0.3661596179008484,0.02025972492992878,0.07087625563144684,1.0],"metallicFactor":0.0,"roughnessFactor":1.0}},{"pbrMetallicRoughness":{"baseColorFactor":[0.7671592831611633,0.4193808436393738,0.6387696266174316,1.0],"metallicFactor":0.0,"roughnessFactor":1.0}},{"pbrMetallicRoughness":{"baseColorFactor":[0.714183509349823,0.47568339109420776,0.3194580674171448,1.0],"metallicFactor":0.0,"roughnessFactor":1.0}},{"pbrMetallicRoughness":{"baseColorFactor":[0.19162897765636444,0.11375279724597931,0.07622329145669937,1.0],"metallicFactor":0.0,"roughnessFactor":1.0}},{"pbrMetallicRoughness":{"baseColorFactor":[0.9748266339302063,0.18047267198562622,0.007761398330330849,1.0],"metallicFactor":0.0,"roughnessFactor":1.0}},{"pbrMetallicRoughness":{"baseColorFactor":[0.29259636998176575,0.3049940764904022,0.5303238034248352,1.0],"metallicFactor":0.0,"roughnessFactor":1.0}},{"pbrMetallicRoughness":{"baseColorFactor":[0.07687008380889893,0.013520694337785244,0.0819581001996994,1.0],"metallicFactor":0.0,"roughnessFactor":1.0}},{"pbrMetallicRoughness":{"baseColorFactor":[0.038744304329156876,0.1232725977897644,0.528866708278656,1.0],"metallicFactor":0.0,"roughnessFactor":1.0}},{"pbrMetallicRoughness":{"baseColorFactor":[0.05830492824316025,0.5294018387794495,0.21247968077659607,1.0],"metallicFactor":0.0,"roughnessFactor":1.0}},{"pbrMetallicRoughness":{"baseColorFactor":[0.008016814477741718,0.7350665926933289,0.09762511402368546,1.0],"metallicFactor":0.0,"roughnessFactor":1.0}},{"pbrMetallicRoughness":{"baseColorFactor":[0.3950939476490021,0.11671273410320282,0.4307706356048584,1.0],"metallicFactor":0.0,"roughnessFactor":1.0}},{"pbrMetallicRoughness":{"baseColorFactor":[0.04044117406010628,0.778774082660675,0.377076655626297,1.0],"metallicFactor":0.0,"roughnessFactor":1.0}},{"pbrMetallicRoughness":{"baseColorFactor":[0.6126071214675903,0.0011854429030790925,0.004761083982884884,1.0],"metallicFactor":0.0,"roughnessFactor":1.0}},{"pbrMetallicRoughness":{"baseColorFactor":[0.019110798835754395,0.10199622809886932,0.011709221638739109,1.0],"metallicFactor":0.0,"roughnessFactor":1.0}},{"pbrMetallicRoughness":{"baseColorFactor":[0.7116785645484924,0.07472874224185944,0.11013239622116089,1.0],"metallicFactor":0.0,"roughnessFactor":1.0}},{"pbrMetallicRoughness":{"baseColorFactor":[0.1340854912996292,0.13250869512557983,0.2968100905418396,1.0],"metallicFactor":0.0,"roughnessFactor":1.0}},{"pbrMetallicRoughness":{"baseColorFactor":[0.04194914922118187,0.08342007547616959,0.7246199250221252,1.0],"metallicFactor":0.0,"roughnessFactor":1.0}},{"pbrMetallicRoughness":{"baseColorFactor":[0.10699087381362915,0.038814008235931396,0.18556110560894012,1.0],"metallicFactor":0.0,"roughnessFactor":1.0}},{"pbrMetallicRoughness":{"baseColorFactor":[0.7290872931480408,0.7826352715492249,0.7117282748222351,1.0],"metallicFactor":0.0,"roughnessFactor":1.0}},{"pbrMetallicRoughness":{"baseColorFactor":[0.06198618933558464,0.1443328559398651,0.2051348090171814,1.0],"metallicFactor":0.0,"roughnessFactor":1.0}},{"pbrMetallicRoughness":{"baseColorFactor":[0.7820552587509155,0.25071099400520325,0.2621580958366394,1.0],"metallicFactor":0.0,"roughnessFactor":1.0}},{"pbrMetallicRoughness":{"baseColorFactor":[0.010037479922175407,0.0510687455534935,0.19138525426387787,1.0],"metallicFactor":0.0,"roughnessFactor":1.0}},{"pbrMetallicRoughness":{"baseColorFactor":[0.005476413760334253,0.04363742470741272,0.7349718809127808,1.0],"metallicFactor":0.0,"roughnessFactor":1.0}},{"pbrMetallicRoughness":{"baseColorFactor":[0.007739147637039423,0.9441125392913818,0.5319089293479919,1.0],"metallicFactor":0.0,"roughnessFactor":1.0}},{"pbrMetallicRoughness":{"baseColorFactor":[0.03217259421944618,0.41213834285736084,0.09433448314666748,1.0],"metallicFactor":0.0,"roughnessFactor":1.0}},{"pbrMetallicRoughness":{"baseColorFactor":[0.1140998899936676,0.7688707113265991,0.01804037019610405,1.0],"metallicFactor":0.0,"roughnessFactor":1.0}},{"pbrMetallicRoughness":{"baseColorFactor":[0.20419926941394806,0.6538657546043396,0.03332865238189697,1.0],"metallicFactor":0.0,"roughnessFactor":1.0}},{"pbrMetallicRoughness":{"baseColorFactor":[0.37809813022613525,0.571021318435669,0.25814422965049744,1.0],"metallicFactor":0.0,"roughnessFactor":1.0}},{"pbrMetallicRoughness":{"baseColorFactor":[0.1612650603055954,0.12223289161920547,0.4469710886478424,1.0],"metallicFactor":0.0,"roughnessFactor":1.0}},{"pbrMetallicRoughness":{"baseColorFactor":[0.3251860439777374,0.4217028319835663,0.09108274430036545,1.0],"metallicFactor":0.0,"roughnessFactor":1.0}},{"pbrMetallicRoughness":{"baseColorFactor":[0.01650000363588333,0.009989975020289421,0.8858059644699097,1.0],"metallicFactor":0.0,"roughnessFactor":1.0}},{"pbrMetallicRoughness":{"baseColorFactor":[0.0907863974571228,0.052579209208488464,0.30476894974708557,1.0],"metallicFactor":0.0,"roughnessFactor":1.0}},{"pbrMetallicRoughness":{"baseColorFactor":[0.14541535079479218,0.02816314809024334,0.271854966878891,1.0],"metallicFactor":0.0,"roughnessFactor":1.0}},{"pbrMetallicRoughness":{"baseColorFactor":[0.08286111056804657,0.16512729227542877,0.3769340515136719,1.0],"metallicFactor":0.0,"roughnessFactor":1.0}},{"pbrMetallicRoughness":{"baseColorFactor":[0.23349563777446747,0.020526710897684097,0.010239883325994015,1.0],"metallicFactor":0.0,"roughnessFactor":1.0}},{"pbrMetallicRoughness":{"baseColorFactor":[0.0019561422523111105,0.21606074273586273,0.8571233749389648,1.0],"metallicFactor":0.0,"roughnessFactor":1.0}},{"pbrMetallicRoughness":{"baseColorFactor":[0.0019034547731280327,0.07336650043725967,0.006786890793591738,1.0],"metallicFactor":0.0,"roughnessFactor":1.0}},{"pbrMetallicRoughness":{"baseColorFactor":[0.028364988043904305,0.25758984684944153,0.007104954682290554,1.0],"metallicFactor":0.0,"roughnessFactor":1.0}},{"pbrMetallicRoughness":{"baseColorFactor":[0.16134802997112274,0.03550471365451813,0.0824924111366272,1.0],"metallicFactor":0.0,"roughnessFactor":1.0}},{"pbrMetallicRoughness":{"baseColorFactor":[0.5842097401618958,0.0029100666288286448,0.006363889202475548,1.0],"metallicFactor":0.0,"roughnessFactor":1.0}},{"pbrMetallicRoughness":{"baseColorFactor":[0.31385406851768494,0.272521048784256,0.023113075643777847,1.0],"metallicFactor":0.0,"roughnessFactor":1.0}},{"pbrMetallicRoughness":{"baseColorFactor":[0.46847695112228394,0.7423021197319031,0.6139503717422485,1.0],"metallicFactor":0.0,"roughnessFactor":1.0}},{"pbrMetallicRoughness":{"baseColorFactor":[0.30223608016967773,0.27114012837409973,0.7869292497634888,1.0],"metallicFactor":0.0,"roughnessFactor":1.0}},{"pbrMetallicRoughness":{"baseColorFactor":[0.5923025608062744,0.9144863486289978,0.08262734860181808,1.0],"metallicFactor":0.0,"roughnessFactor":1.0}},{"pbrMetallicRoughness":{"baseColorFactor":[0.08808659017086029,0.19175471365451813,0.5190567970275879,1.0],"metallicFactor":0.0,"roughnessFactor":1.0}},{"emissiveFactor":[1.0,1.0,1.0],"extensions":{"KHR_materials_emissive_strength":{"emissiveStrength":0.0}},"name":"Frame_metal","pbrMetallicRoughness":{"baseColorFactor":[0.02644301950931549,0.02644301950931549,0.02644301950931549,1.0],"metallicFactor":0.0,"roughnessFactor":1.0}},{"emissiveFactor":[1.0,1.0,1.0],"extensions":{"KHR_materials_emissive_strength":{"emissiveStrength":0.0}},"name":"Door_stripes","pbrMetallicRoughness":{"baseColorFactor":[0.8000157475471497,0.7212030291557312,0.0,1.0],"metallicFactor":0.0,"roughnessFactor":1.0}},{"emissiveFactor":[1.0,1.0,1.0],"extensions":{"KHR_materials_emissive_strength":{"emissiveStrength":0.0}},"name":"Door_metal","pbrMetallicRoughness":{"baseColorFactor":[0.08502668142318726,0.08502668142318726,0.08502668142318726,1.0],"metallicFactor":0.0,"roughnessFactor":1.0}},{"emissiveFactor":[1.0,1.0,1.0],"extensions":{"KHR_materials_emissive_strength":{"emissiveStrength":0.0}},"name":"Door_front","pbrMetallicRoughness":{"baseColorFactor":[0.08502668142318726,0.08502668142318726,0.08502668142318726,1.0],"metallicFactor":0.0,"roughnessFactor":1.0}}],"meshes":[{"primitives":[{"attributes":{"NORMAL":3,"POSITION":1,"TANGENT":2,"TEXCOORD_0":4},"indices":5,"material":0,"mode":4},{"attributes":{"NORMAL":8,"POSITION":6,"TANGENT":7,"TEXCOORD_0":9},"indices":10,"material":1,"mode":4},{"attributes":{"NORMAL":13,"POSITION":11,"TANGENT":12,"TEXCOORD_0":14},"indices":10,"material":2,"mode":4},{"attributes":{"NORMAL":17,"POSITION":15,"TANGENT":16,"TEXCOORD_0":18},"indices":10,"material":3,"mode":4},{"attributes":{"NORMAL":21,"POSITION":19,"TANGENT":20,"TEXCOORD_0":22},"indices":10,"material":4,"mode":4},{"attributes":{"NORMAL":25,"POSITION":23,"TANGENT":24,"TEXCOORD_0":26},"indices":27,"material":5,"mode":4},{"attributes":{"NORMAL":30,"POSITION":28,"TANGENT":29,"TEXCOORD_0":31},"indices":27,"material":6,"mode":4},{"attributes":{"NORMAL":34,"POSITION":32,"TANGENT":33,"TEXCOORD_0":35},"indices":27,"material":7,"mode":4},{"attributes":{"NORMAL":38,"POSITION":36,"TANGENT":37,"TEXCOORD_0":39},"indices":40,"material":8,"mode":4},{"attributes":{"NORMAL":43,"POSITION":41,"TANGENT":42,"TEXCOORD_0":44},"indices":5,"material":9,"mode":4},{"attributes":{"NORMAL":47,"POSITION":45,"TANGENT":46,"TEXCOORD_0":48},"indices":27,"material":10,"mode":4},{"attributes":{"NORMAL":51,"POSITION":49,"TANGENT":50,"TEXCOORD_0":52},"indices":27,"material":11,"mode":4},{"attributes":{"NORMAL":55,"POSITION":53,"TANGENT":54,"TEXCOORD_0":56},"indices":40,"material":12,"mode":4},{"attributes":{"NORMAL":59,"POSITION":57,"TANGENT":58,"TEXCOORD_0":60},"indices":10,"material":13,"mode":4},{"attributes":{"NORMAL":63,"POSITION":61,"TANGENT":62,"TEXCOORD_0":64},"indices":10,"material":14,"mode":4},{"attributes":{"NORMAL":67,"POSITION":65,"TANGENT":66,"TEXCOORD_0":68},"indices":40,"material":15,"mode":4},{"attributes":{"NORMAL":71,"POSITION":69,"TANGENT":70,"TEXCOORD_0":72},"indices":73,"material":16,"mode":4},{"attributes":{"NORMAL":76,"POSITION":74,"TANGENT":75,"TEXCOORD_0":77},"indices":10,"material":17,"mode":4},{"attributes":{"NORMAL":80,"POSITION":78,"TANGENT":79,"TEXCOORD_0":81},"indices":10,"material":18,"mode":4},{"attributes":{"NORMAL":83,"POSITION":82,"TANGENT":75,"TEXCOORD_0":84},"indices":10,"material":19,"mode":4},{"attributes":{"NORMAL":87,"POSITION":85,"TANGENT":86,"TEXCOORD_0":88},"indices":5,"material":20,"mode":4},{"attributes":{"NORMAL":91,"POSITION":89,"TANGENT":90,"TEXCOORD_0":92},"indices":93,"material":21,"mode":4},{"attributes":{"NORMAL":96,"POSITION":94,"TANGENT":95,"TEXCOORD_0":97},"indices":98,"material":22,"mode":4},{"attributes":{"NORMAL":101,"POSITION":99,"TANGENT":100,"TEXCOORD_0":102},"indices":93,"material":23,"mode":4},{"attributes":{"NORMAL":96,"POSITION":103,"TANGENT":95,"TEXCOORD_0":104},"indices":98,"material":24,"mode":4},{"attributes":{"NORMAL":107,"POSITION":105,"TANGENT":106,"TEXCOORD_0":108},"indices":109,"material":25,"mode":4},{"attributes":{"NORMAL":112,"POSITION":110,"TANGENT":111,"TEXCOORD_0":113},"indices":114,"mode":4},{"attributes":{"NORMAL":117,"POSITION":115,"TANGENT":116,"TEXCOORD_0":118},"indices":109,"material":26,"mode":4},{"attributes":{"NORMAL":121,"POSITION":119,"TANGENT":120,"TEXCOORD_0":122},"indices":123,"material":27,"mode":4},{"attributes":{"NORMAL":126,"POSITION":124,"TANGENT":125,"TEXCOORD_0":127},"indices":73,"material":28,"mode":4},{"attributes":{"NORMAL":130,"POSITION":128,"TANGENT":129,"TEXCOORD_0":131},"indices":132,"material":29,"mode":4},{"attributes":{"NORMAL":135,"POSITION":133,"TANGENT":134,"TEXCOORD_0":136},"indices":137,"material":30,"mode":4},{"attributes":{"NORMAL":140,"POSITION":138,"TANGENT":139,"TEXCOORD_0":141},"indices":93,"material":31,"mode":4},{"attributes":{"NORMAL":144,"POSITION":142,"TANGENT":143,"TEXCOORD_0":145},"indices":5,"material":32,"mode":4},{"attributes":{"NORMAL":148,"POSITION":146,"TANGENT":147,"TEXCOORD_0":149},"indices":73,"material":33,"mode":4},{"attributes":{"NORMAL":152,"POSITION":150,"TANGENT":151,"TEXCOORD_0":153},"indices":154,"material":34,"mode":4},{"attributes":{"NORMAL":148,"POSITION":155,"TANGENT":147,"TEXCOORD_0":156},"indices":73,"material":35,"mode":4},{"attributes":{"NORMAL":159,"POSITION":157,"TANGENT":158,"TEXCOORD_0":160},"indices":154,"material":36,"mode":4},{"attributes":{"NORMAL":163,"POSITION":161,"TANGENT":162,"TEXCOORD_0":164},"indices":132,"material":37,"mode":4},{"attributes":{"NORMAL":167,"POSITION":165,"TANGENT":166,"TEXCOORD_0":168},"indices":98,"material":38,"mode":4},{"attributes":{"NORMAL":171,"POSITION":169,"TANGENT":170,"TEXCOORD_0":172},"indices":98,"material":39,"mode":4},{"attributes":{"NORMAL":175,"POSITION":173,"TANGENT":174,"TEXCOORD_0":176},"indices":123,"material":40,"mode":4},{"attributes":{"NORMAL":76,"POSITION":177,"TANGENT":75,"TEXCOORD_0":178},"indices":10,"material":41,"mode":4},{"attributes":{"NORMAL":83,"POSITION":179,"TANGENT":75,"TEXCOORD_0":180},"indices":10,"material":42,"mode":4},{"attributes":{"NORMAL":183,"POSITION":181,"TANGENT":182,"TEXCOORD_0":184},"indices":114,"material":43,"mode":4},{"attributes":{"NORMAL":186,"POSITION":185,"TANGENT":170,"TEXCOORD_0":187},"indices":98,"material":44,"mode":4},{"attributes":{"NORMAL":190,"POSITION":188,"TANGENT":189,"TEXCOORD_0":191},"indices":98,"material":45,"mode":4},{"attributes":{"NORMAL":194,"POSITION":192,"TANGENT":193,"TEXCOORD_0":195},"indices":132,"material":46,"mode":4},{"attributes":{"NORMAL":198,"POSITION":196,"TANGENT":197,"TEXCOORD_0":199},"indices":132,"material":47,"mode":4},{"attributes":{"NORMAL":202,"POSITION":200,"TANGENT":201,"TEXCOORD_0":203},"indices":98,"material":48,"mode":4},{"attributes":{"NORMAL":206,"POSITION":204,"TANGENT":205,"TEXCOORD_0":207},"indices":10,"material":49,"mode":4},{"attributes":{"NORMAL":210,"POSITION":208,"TANGENT":209,"TEXCOORD_0":211},"indices":98,"material":50,"mode":4},{"attributes":{"NORMAL":198,"POSITION":212,"TANGENT":197,"TEXCOORD_0":213},"indices":132,"material":51,"mode":4}]},{"name":"Cube_004","primitives":[{"attributes":{"NORMAL":216,"POSITION":214,"TANGENT":215,"TEXCOORD_0":217},"indices":218,"material":52,"mode":4}]},{"name":"Cube_003","primitives":[{"attributes":{"JOINTS_0":223,"NORMAL":221,"POSITION":219,"TANGENT":220,"TEXCOORD_0":222,"WEIGHTS_0":224},"indices":225,"material":53,"mode":4},{"attributes":{"JOINTS_0":230,"NORMAL":228,"POSITION":226,"TANGENT":227,"TEXCOORD_0":229,"WEIGHTS_0":231},"indices":232,"material":54,"mode":4},{"attributes":{"JOINTS_0":237,"NORMAL":235,"POSITION":233,"TANGENT":234,"TEXCOORD_0":236,"WEIGHTS_0":238},"indices":239,"material":55,"mode":4}]},{"name":"Cube_0042","primitives":[{"attributes":{"NORMAL":216,"POSITION":214,"TANGENT":215,"TEXCOORD_0":217},"indices":218,"material":52,"mode":4}]},{"name":"Cube_0032","primitives":[{"attributes":{"JOINTS_0":223,"NORMAL":221,"POSITION":219,"TANGENT":220,"TEXCOORD_0":222,"WEIGHTS_0":224},"indices":225,"material":53,"mode":4},{"attributes":{"JOINTS_0":230,"NORMAL":228,"POSITION":226,"TANGENT":227,"TEXCOORD_0":229,"WEIGHTS_0":231},"indices":232,"material":54,"mode":4},{"attributes":{"JOINTS_0":237,"NORMAL":235,"POSITION":233,"TANGENT":234,"TEXCOORD_0":236,"WEIGHTS_0":238},"indices":239,"material":55,"mode":4}]}],"nodes":[{"children":[1,2,10],"name":"Node3D"},{"mesh":0,"name":"CSGBakedMeshInstance3D"},{"children":[3,4],"name":"security_door","rotation":[0.0,0.7071067690849304,0.0,0.7071067690849304],"translation":[10.0,0.0,12.0]},{"name":"AnimationTree"},{"children":[5],"name":"Empty","rotation":[0.5,-0.5,-0.5,-0.5]},{"children":[6,7,9],"name":"Armature","translation":[0.0,0.0,1.0]},{"mesh":1,"name":"door_frame1"},{"children":[8],"name":"door","rotation":[0.7071067690849304,0.0,0.0,0.7071067690849304],"translation":[0.0,0.0,-0.25]},{"name":"door_end","translation":[0.0,0.5,0.0]},{"mesh":2,"name":"Door1_001","skin":0},{"children":[11,12],"name":"_Node3D_131","rotation":[0.0,0.7071067690849304,0.0,0.7071067690849304],"translation":[6.0,0.0,12.0]},{"name":"AnimationTree2"},{"children":[13],"name":"Empty2","rotation":[0.5,-0.5,-0.5,-0.5]},{"children":[14,15,17],"name":"Armature2","translation":[0.0,0.0,1.0]},{"mesh":3,"name":"door_frame12"},{"children":[16],"name":"door2","rotation":[0.7071067690849304,0.0,0.0,0.7071067690849304],"translation":[0.0,0.0,-0.25]},{"name":"door_end2","translation":[0.0,0.5,0.0]},{"mesh":4,"name":"Door1_0012","skin":1}],"scene":0,"scenes":[{"nodes":[0]}],"skins":[{"inverseBindMatrices":0,"joints":[7],"name":"Skin"},{"inverseBindMatrices":0,"joints":[15],"name":"Skin"}]}